<svg xmlns="http://www.w3.org/2000/svg" width="157.794" height="159.44"><path class="st0" d="M149.112 143.712c-5-4.8-9.8-9.8-14.8-14.6-4.6-4.6-9.3-9.2-13.9-13.8-4.3-4.3-8.6-8.7-12.9-13.1-3.9-3.9-7.7-7.9-11.6-11.8-5-5.1-10.1-10.2-15-15.4-3-3.2-5.6-6.7-8.6-9.8-7.6-8.1-15.5-16-23-24.3-4.4-4.9-10.1-8.8-13.1-14.9-.3-.7-.9-1.3-1.5-1.8-4.2-3.7-8.4-7.5-12.7-11.1-2.6-2.1-5.5-3.7-8.2-5.5-.5-.3-1.2-.6-1.8-.7-2.4-.6-5.2.7-6.5 2.9-1.6 2.7-1.4 3.8 1.3 6.3 1.6 1.4 3.3 2.9 5.2 3.9 4.8 2.7 8.3 6.8 12 10.6 5.9 5.9 11 12.5 16.7 18.6 7.4 7.9 15 15.4 22.5 23.2 4.2 4.4 8 9 12.2 13.3 13.2 13.5 26.5 26.8 39.8 40.2 3 3 6 6 9 8.9 6 6 12 11.9 18 17.9 2.4 2.4 7.1 3.2 9.3.7 1.2-1.4 1.2-3.5.5-5.1-.6-1.7-1.6-3.3-2.9-4.6z" fill="#ec5540" stroke="#ec5540" stroke-width="9" stroke-miterlimit="10"/><path class="st0" d="M16.312 149.112c4.8-5 9.8-9.8 14.6-14.8 4.6-4.6 9.2-9.3 13.8-13.9 4.3-4.3 8.7-8.6 13.1-12.9 3.9-3.9 7.9-7.7 11.8-11.6 5.1-5 10.2-10.1 15.4-15 3.2-3 6.7-5.6 9.8-8.6 8.1-7.6 16-15.5 24.3-23 4.9-4.4 8.8-10.1 14.9-13.1.7-.3 1.3-.9 1.8-1.5 3.7-4.2 7.5-8.4 11.1-12.7 2.1-2.6 3.7-5.5 5.5-8.2.3-.5.6-1.2.7-1.8.6-2.4-.7-5.2-2.9-6.5-2.7-1.6-3.8-1.4-6.3 1.3-1.4 1.6-2.9 3.3-3.9 5.2-2.7 4.8-6.8 8.3-10.6 12-5.9 5.9-12.5 11-18.6 16.7-7.9 7.4-15.4 15-23.2 22.5-4.4 4.2-9 8-13.3 12.2-13.5 13.2-26.8 26.5-40.2 39.8-3 3-6 6-8.9 9-6 6-11.9 12-17.9 18-2.4 2.4-3.2 7.1-.7 9.3 1.4 1.2 3.5 1.2 5.1.5 1.7-.6 3.3-1.6 4.6-2.9z" fill="#ec5540" stroke="#ec5540" stroke-width="9" stroke-miterlimit="10"/></svg>